<svg xmlns="http://www.w3.org/2000/svg" viewBox="0 0 64 64"><g id="NETWORK"><path d="M22.85,20.74H28a3.42,3.42,0,0,0-.33,1.84h-.75a1,1,0,0,0,0,2h10.2a1,1,0,0,0,0-2h-.75A3.42,3.42,0,0,0,36,20.74h5.11A2.86,2.86,0,0,0,44,17.88v-12c-.17-2.91-2.67-3-5-2.85a1,1,0,0,0,0,2c.77.12,3-.46,3,.85v9.82H22V5.85A.85.85,0,0,1,22.85,5H33a1,1,0,0,0,0-2H22.85A2.86,2.86,0,0,0,20,5.85v12A2.86,2.86,0,0,0,22.85,20.74Zm10.16,0a1.53,1.53,0,0,1,1.32,1.83h-4.7C29.39,20.4,31.57,20.72,33,20.75Zm9-2.87a.86.86,0,0,1-.85.86H32.54a.77.77,0,0,0,0-1.07H42Zm-10.54-.21a.77.77,0,0,0,0,1.07H22.85A.9.9,0,0,1,22,17.67Z"/><path d="M23.19,40.24H5.85A2.86,2.86,0,0,0,3,43.09V54.47a2.86,2.86,0,0,0,2.85,2.85H10.6A3.35,3.35,0,0,0,10.31,59H9.64a1,1,0,0,0,0,2h9.77a1,1,0,0,0,0-2h-.67a3.46,3.46,0,0,0-.29-1.68h4.74a2.86,2.86,0,0,0,2.86-2.85V43.09A2.86,2.86,0,0,0,23.19,40.24Zm-17.34,2H23.19a.86.86,0,0,1,.86.85v9.29H5V43.09A.85.85,0,0,1,5.85,42.24ZM5,54.47v-.09h9a.68.68,0,0,0,0,.94H5.85A.85.85,0,0,1,5,54.47Zm10.51,2.86A1.42,1.42,0,0,1,16.74,59H12.31C12.09,57,14.2,57.3,15.51,57.33Zm7.68-2h-8.1a.7.7,0,0,0,0-.94h9A.87.87,0,0,1,23.19,55.32Z"/><path d="M58.15,40.24H40.81A2.86,2.86,0,0,0,38,43.09V54.47a2.86,2.86,0,0,0,2.86,2.85h4.74A3.46,3.46,0,0,0,45.26,59h-.67a1,1,0,0,0,0,2h9.77a1,1,0,0,0,0-2h-.67a3.35,3.35,0,0,0-.29-1.68h4.75A2.86,2.86,0,0,0,61,54.47V43.09A2.86,2.86,0,0,0,58.15,40.24Zm-17.34,2H58.15a.85.85,0,0,1,.85.85v9.29H40V43.09A.86.86,0,0,1,40.81,42.24ZM40,54.47v-.09h9a.7.7,0,0,0,0,.94h-8.1A.86.86,0,0,1,40,54.47Zm10.51,2.86A1.42,1.42,0,0,1,51.69,59H47.26C47,57,49.15,57.3,50.46,57.33Zm7.69-2H50a.68.68,0,0,0,0-.94h9A.87.87,0,0,1,58.15,55.32Z"/><path d="M35,48.16H29a1,1,0,0,0,0,2h6A1,1,0,0,0,35,48.16Z"/><path d="M31.14,25.91l-7,11.94a1,1,0,0,0,1.72,1L32,28.39l6.14,10.48a1,1,0,0,0,1.72-1l-7-11.94A1,1,0,0,0,31.14,25.91Z"/><path d="M36,5a1,1,0,0,0,0-2A1,1,0,0,0,36,5Z"/></g></svg>